<svg id="Layer_1" viewBox="0 0 24 24" xmlns="http://www.w3.org/2000/svg" data-name="Layer 1"><path d="m12 23c-7.71 0-11-3.29-11-11 0-6.978 2.748-10.343 8.908-10.91.56-.049 1.037.354 1.087.904.051.55-.354 1.037-.904 1.087-5.104.47-7.092 2.971-7.092 8.919 0 6.561 2.439 9 9 9s9-2.439 9-9c0-.676-.027-1.318-.082-1.909-.05-.55.355-1.037.905-1.087.549-.042 1.036.356 1.087.905.059.651.089 1.354.089 2.091 0 7.71-3.29 11-11 11zm0-8c-1.429 0-2 .571-2 2s.571 2 2 2 2-.571 2-2-.571-2-2-2zm6.682-2.269c.404-.376.426-1.009.049-1.413s-1.01-.426-1.413-.049c-1.055.983-1.581.983-2.636 0-.403-.377-1.037-.355-1.413.049-.377.404-.355 1.037.049 1.413.915.854 1.792 1.269 2.682 1.269s1.767-.415 2.682-1.269zm-8 0c.404-.376.426-1.009.049-1.413-.376-.404-1.01-.426-1.413-.049-1.055.983-1.581.983-2.636 0-.403-.377-1.036-.355-1.413.049s-.355 1.037.049 1.413c.915.854 1.792 1.269 2.682 1.269s1.767-.415 2.682-1.269zm5.573-3.964c.534-.141.852-.687.712-1.22-.14-.534-.683-.855-1.22-.714-.004 0-.341.088-.752.136l1.773-2.128c.219-.263.289-.619.185-.944s-.367-.576-.698-.663c-.09-.024-.909-.233-1.755-.233s-1.665.209-1.755.233c-.534.141-.852.687-.712 1.22.14.534.683.855 1.22.714.004 0 .341-.088.752-.136l-1.773 2.128c-.219.263-.289.619-.185.944s.367.576.698.663c.09.024.909.233 1.755.233s1.665-.209 1.755-.233zm6-2c.534-.141.852-.687.712-1.22-.14-.534-.684-.853-1.22-.714-.004 0-.341.088-.752.136l1.773-2.128c.219-.263.289-.619.185-.944s-.367-.576-.698-.663c-.09-.024-.909-.233-1.755-.233s-1.665.209-1.755.233c-.534.141-.852.687-.712 1.22.14.534.683.854 1.22.714.004 0 .341-.088.752-.136l-1.773 2.128c-.219.263-.289.619-.185.944s.367.576.698.663c.09.024.909.233 1.755.233s1.665-.209 1.755-.233z"/></svg>