<?xml version="1.0" encoding="UTF-8"?>
<svg id="Capa_1" xmlns="http://www.w3.org/2000/svg" version="1.1" viewBox="0 0 1080 1080">
  <!-- Generator: Adobe Illustrator 29.0.0, SVG Export Plug-In . SVG Version: 2.1.0 Build 186)  -->
  <defs>
    <style>
      .st0 {
        fill: #fff;
      }
    </style>
  </defs>
  <path class="st0" d="M968.1,627.1c-52.1-81.1-76.4-197.2-201.9-177.8-22.5,3.5-41.8,10.3-59.1,19.1h0c-10.7-69.1-41.4-164.2-127.6-227.4-85.3-62.3-179.2-65.7-213.3-67.4-23.9-.9-47.8-.9-71.7-.9H14.6v734.6h291.9c50.4,0,102.4-1.7,150.2-12.8,18.7-5.1,59.7-15.3,103.2-43.5,19.7-12.1,34-23.7,44.6-33.4h.2c43.2-19.5,61.7-65.1,121.9-135.8,103.6-121.6,200,285.2,305,179.1h0v.3c89-90-21.7-168.8-63.6-234h0ZM323.5,725.6h0c3.3-11,7.2-21.6,11.7-29.6,6.3-11,20.4-15,31.6-8.9,8.9,4.8,19.3,12.2,30.9,21.1-23.2,12.4-47.7,16.1-74.2,17.4ZM397.3,481.3c-54.6-15.9-82.9,30.6-144.5,62.6v-187.7h41c46,.8,88.7,3.4,127.1,32.4,27.3,23.1,52,62.3,52,150.2v5.1h-.1c-22.3-24.2-44.8-51.9-75.5-62.6h0Z"/>
</svg>