<?xml version="1.0" encoding="UTF-8"?>
<svg xmlns="http://www.w3.org/2000/svg" version="1.1" viewBox="0 0 67.1 34.3">
  <!-- Generator: Adobe Illustrator 29.0.0, SVG Export Plug-In . SVG Version: 2.1.0 Build 186)  -->
  <g id="Capa_2">
    <g>
      <path d="M87.3-16l-.7-.2c-.3,0-.5-.6-.5-.6l-3.3-8,2.9-7c.1-.2.2-.4.4-.4,0,0,.7-.2.7-.2.1,0,.2-.1.1-.2,0,0-.1-.2-.2-.2h-3.3c0,0-.2,0-.2.2,0,.1,0,.2.1.2l.7.2c.1,0,.3.1.3.2.1.1.2.3,0,.5l-2.2,5.4-2.2-5.4c0-.2,0-.4,0-.5,0-.1.2-.2.3-.2l.7-.2c.1,0,.2-.1.1-.2,0,0-.1-.2-.2-.2h-4.2c0,0-.2,0-.2.2,0,.1,0,.2.1.2,0,0,.7.2.7.2.2,0,.3.2.4.4l3.3,8.1-2.8,6.9s-.2.5-.5.6l-.7.2c-.1,0-.2.1-.1.2,0,0,.1.2.2.2h3.3c0,0,.2,0,.2-.2,0-.1,0-.2-.1-.2l-.7-.2c-.1,0-.3-.1-.3-.2-.1-.1-.1-.3,0-.5l2.2-5.4,2.2,5.4c0,.2,0,.4,0,.5,0,.1-.2.2-.3.2l-.7.2c-.1,0-.2.1-.1.2,0,0,.1.2.2.2h4.2c0,0,.2,0,.2-.2,0-.1,0-.2-.1-.2h0Z"/>
      <path d="M35.6-15.9l-.7-.2c-.1,0-.3-.1-.3-.2,0-.1-.1-.2-.1-.4v-14.8c0-.1,0-.3.1-.4,0-.1.2-.2.3-.2l.7-.2c.1,0,.2-.1.1-.2,0,0-.1-.2-.2-.2h-9.9c0,0-.2,0-.2.2,0,.1,0,.2.1.2l.7.2c.1,0,.3.1.3.2,0,.1.1.2.1.4v14.8c0,.1,0,.3-.1.4,0,.1-.2.2-.3.2l-.7.2c-.1,0-.2.1-.1.2,0,0,.1.2.2.2h9.9c0,0,.2,0,.2-.2,0-.1,0-.2-.1-.2ZM32.4-16.8c0,.1,0,.3-.1.4,0,0,0,0,0,0-.1.1-.3.2-.4.2h-2.4c-.2,0-.3,0-.4-.2,0,0,0,0,0,0,0-.1-.1-.2-.1-.4v-14.8c0-.1,0-.3.1-.4,0,0,0,0,0,0,.1-.1.3-.2.4-.2h2.4c.2,0,.3,0,.4.2,0,0,0,0,0,0,0,.1.1.2.1.4v14.8Z"/>
      <path d="M75.4-15.9l-.7-.2c-.1,0-.3-.1-.3-.2,0-.1-.1-.2-.1-.4v-14.8c0-.1,0-.3.1-.4,0-.1.2-.2.3-.2l.7-.2c.1,0,.2-.1.1-.2,0,0-.1-.2-.2-.2h-4.1c0,0-.2,0-.2.2,0,.1,0,.2.1.2l.7.2c.1,0,.3.1.3.2,0,.1.1.2.1.4v14.8c0,.1,0,.3-.1.4,0,.1-.2.2-.3.2l-.7.2c-.1,0-.2.1-.1.2,0,0,.1.2.2.2h4.1c0,0,.2,0,.2-.2,0-.1,0-.2-.1-.2Z"/>
      <path d="M23-17.6c-.6-.6-1.2-1.5-1.2-2.6.1,0,.2,0,.4,0,.4,0,.8-.3.8-.7,0-.5-.3-.9-.8-.9s-.3,0-.4,0h0s-.4.1-.7.7c-.2.4-.3.9-.2,1.8.1.7.2,1.4.2,2.1v.2c0,.1,0,.3-.1.3,0,0,0,0,0,0-.1.1-.3.2-.4.2h-2.4c-.2,0-.3,0-.4-.2,0,0,0,0,0,0,0-.1-.1-.2-.1-.4v-14.8c0-.1,0-.3.1-.4,0,0,0,0,0,0,.1-.1.3-.2.4-.2h2.4c.2,0,.3,0,.4.2,0,0,0,0,0,0,0,.1.1.2.1.3v.3c0,.7,0,1.4-.2,2.1-.1.9,0,1.4.2,1.8.3.5.7.7.7.7h0c.1,0,.2,0,.4,0,.5,0,.9-.4.8-.9,0-.4-.4-.7-.8-.7s-.3,0-.4,0c0-1.1.6-2,1.2-2.6.7-.6,1.3-.9,1.3-.9l-.6-.5h.4c.1-.1.2-.2.1-.3,0,0-.1-.2-.2-.2h-9.9s0,0,0,0h0s0,0,0,.1c0,0,0,.1,0,.2,0,0,0,0,0,0l.7.2s0,0,0,0c0,0,.1,0,.2.1,0,0,0,0,0,0,0,.1.1.2.1.4v14.8c0,.1,0,.3-.1.4,0,.1-.2.2-.3.2l-.7.2c-.1,0-.2.1-.1.2,0,0,.1.2.2.2h9.9c0,0,.2,0,.2-.2,0-.1,0-.2-.1-.2h-.4c0-.1.6-.7.6-.7,0,0-.7-.3-1.3-.9h0s0,0,0,0Z"/>
      <path d="M-18.9-30.7c.6.6,1.2,1.5,1.2,2.6-.1,0-.2,0-.4,0-.4,0-.8.3-.8.7,0,.5.3.9.8.9s.3,0,.4,0h0s.4-.1.7-.7c.2-.4.3-1,.2-1.8-.1-.7-.2-1.4-.2-2.1v-.2c0-.1,0-.3.1-.3,0,0,0,0,0,0,.1-.1.3-.2.4-.2h2.4c.2,0,.3,0,.4.2s0,0,0,0c0,.1.1.2.1.4v14.8c0,.1,0,.3-.1.4,0,0,0,0,0,0-.1.1-.3.2-.4.2h-2.4c-.2,0-.3,0-.4-.2,0,0,0,0,0,0,0-.1-.1-.2-.1-.3v-.3c0-.7,0-1.4.2-2.1.1-.9,0-1.4-.2-1.8-.3-.5-.7-.7-.7-.7h0c-.1,0-.2,0-.4,0-.5,0-.9.4-.8.9,0,.4.4.7.8.7s.3,0,.4,0c0,1.1-.6,2-1.2,2.6-.7.6-1.3,1-1.3,1l.6.5h-.4c-.1.1-.2.2-.1.3,0,0,.1.2.2.2h9.9s0,0,0,0h0s0,0,0-.1,0-.1,0-.2c0,0,0,0,0,0l-.7-.2s0,0,0,0c0,0-.1,0-.2-.1,0,0,0,0,0,0,0-.1-.1-.2-.1-.4v-14.8c0-.1,0-.3.1-.4,0-.1.2-.2.3-.2l.7-.2c.1,0,.2-.1.1-.2,0,0-.1-.2-.2-.2h-9.9c0,0-.2,0-.2.2,0,.1,0,.2.1.2h.4c0,.1-.6.7-.6.7,0,0,.7.3,1.3,1h0Z"/>
      <path d="M68.6-17.6c-.6-.6-1.2-1.4-1.2-2.5,0,0,0,0,.1,0,0,0,.2,0,.2,0,.4,0,.8-.3.8-.7,0-.5-.3-.9-.8-.9s-.2,0-.2,0c0,0-.1,0-.1,0h0s-.4.1-.7.7c-.2.4-.3.9-.2,1.8.1.7.2,1.3.2,2v.4c0,.1,0,.3-.1.3,0,0,0,0,0,0-.1.1-.3.2-.4.2h-2.4c-.2,0-.3,0-.4-.2,0,0,0,0,0,0,0-.1-.1-.2-.1-.3v-9.5h.4c.1,0,.3,0,.4.1.1,0,.2.2.2.3l.2.7c0,.1.1.2.2.1,0,0,.2-.1.2-.2v-2.8c0,0,0-.2-.2-.2-.1,0-.2,0-.2.1l-.2.7c0,.1-.1.3-.2.3-.1,0-.2.1-.4.1h-.4v-4.8c0-.1,0-.2.1-.3,0,0,0,0,0,0,.1-.1.3-.2.4-.2h2.4c.2,0,.3,0,.4.2s0,0,0,0c0,.1.1.2.1.3v.3c0,.7,0,1.4-.2,2.1-.1.9,0,1.4.2,1.8.2.4.6.6.7.6,0,0,0,0,0,0h0c.1,0,.2,0,.4,0,.5,0,.9-.4.8-.9,0-.4-.4-.7-.8-.7s-.3,0-.4,0c0-1.1.6-2,1.2-2.6.7-.6,1.3-.9,1.3-.9l-.6-.5h.4c.1-.1.2-.2.1-.3,0,0-.1-.2-.2-.2h-9.9c0,0-.2,0-.2.2,0,.1,0,.2.1.2l.7.2c.1,0,.3.1.3.2,0,.1.1.2.1.4v14.8c0,.1,0,.3-.1.4,0,.1-.2.2-.3.2l-.7.2c-.1,0-.2.1-.1.2,0,0,.1.2.2.2h9.9c0,0,.2,0,.2-.2,0-.1,0-.2-.1-.2h-.4c0-.1.6-.7.6-.7,0,0-.7-.3-1.3-.9h0s0,0,0,0h0Z"/>
      <path d="M.2-17.6c-.6-.6-1.2-1.4-1.2-2.5,0,0,0,0,.1,0,0,0,.2,0,.2,0,.4,0,.8-.3.8-.7,0-.5-.3-.9-.8-.9s-.2,0-.2,0c0,0-.1,0-.1,0h0s-.4.1-.7.7c-.2.4-.3.9-.2,1.8.1.7.2,1.3.2,2v.4c0,.1,0,.3-.1.3,0,0,0,0,0,0-.1.1-.3.2-.4.2h-2.4c-.2,0-.3,0-.4-.2,0,0,0,0,0,0,0-.1-.1-.2-.1-.3v-9.5h.4c.1,0,.3,0,.4.1s.2.2.2.3l.2.7c0,.1.1.2.2.1,0,0,.2-.1.2-.2v-2.8c0,0,0-.2-.2-.2-.1,0-.2,0-.2.1l-.2.7c0,.1-.1.3-.2.3-.1,0-.2.1-.4.1h-.4v-4.8c0-.1,0-.2.1-.3,0,0,0,0,0,0,.1-.1.3-.2.4-.2h2.4c.2,0,.3,0,.4.2s0,0,0,0c0,.1.1.2.1.3v.3c0,.7,0,1.4-.2,2.1-.1.9,0,1.4.2,1.8.2.4.6.6.7.6,0,0,0,0,0,0h0c.1,0,.2,0,.4,0,.5,0,.9-.4.8-.9,0-.4-.4-.7-.8-.7s-.3,0-.4,0c0-1.1.6-2,1.2-2.6.7-.6,1.3-.9,1.3-.9l-.6-.5h.4c.1-.1.2-.2.1-.3,0,0-.1-.2-.2-.2h-9.9c0,0-.2,0-.2.2,0,.1,0,.2.1.2l.7.2c.1,0,.3.1.3.2,0,.1.1.2.1.4v14.8c0,.1,0,.3-.1.4,0,.1-.2.2-.3.2l-.7.2c-.1,0-.2.1-.1.2,0,0,.1.2.2.2H1.3c0,0,.2,0,.2-.2,0-.1,0-.2-.1-.2h-.4c0-.1.6-.7.6-.7,0,0-.7-.3-1.3-.9H.2s0,0,0,0Z"/>
      <path d="M12.8-16l-.7-.2c-.1,0-.3-.1-.3-.2,0-.1-.1-.2-.1-.4v-7.1h0v-1.7c0-.1,0-.3.1-.4,0-.1.2-.2.3-.2l.7-.2c.1,0,.2-.1.1-.2,0,0-.1-.2-.2-.2h-.5c-.3,0-.6,0-.8.3-.2.2-.5.3-.8.3s-.6-.1-.8-.3c-.2-.2-.5-.3-.8-.3h-2.5c-.2,0-.3,0-.4-.2,0,0,0,0,0,0,0-.1-.1-.2-.1-.4v-4.2c0-.1,0-.2.1-.3,0,0,0,0,0,0,.1-.1.3-.2.4-.2h2.4c.2,0,.3,0,.4.2s0,0,0,0c0,.1.1.2.1.3v.3c0,.2,0,.5,0,.9,0,.5-.1,1-.1,1.2-.1.9,0,1.4.2,1.8.2.4.6.6.7.6,0,0,0,0,0,0h0c.1,0,.2,0,.4,0,.5,0,.9-.4.8-.9,0-.4-.4-.7-.8-.7s-.3,0-.4,0c0-1.1.6-2,1.2-2.6.7-.6,1.3-.9,1.3-.9l-.6-.5h.4c.1-.1.2-.2.1-.3,0,0-.1-.2-.2-.2H2.8c0,0-.2,0-.2.2,0,.1,0,.2.1.2l.7.2c.1,0,.3.1.3.2,0,.1.1.2.1.4v4.2c0,.1,0,.3-.1.4,0,.1-.2.2-.3.2l-.7.2c-.1,0-.2.1-.1.2,0,0,.1.2.2.2h6.2c.1,0,.3,0,.4.2,0,0,0,0,0,0,0,.1.1.2.1.4v7.6h0v1.3c0,.1,0,.2-.2.3,0,0,0,0,0,0-.1.1-.3.2-.4.2h-2.4c-.2,0-.3,0-.4-.2s0,0,0,0c0-.1-.1-.2-.1-.3v-.3c0-.7,0-1.4.2-2.1.1-.9,0-1.4-.2-1.8-.2-.4-.6-.6-.7-.6,0,0,0,0,0,0h0c-.1,0-.2,0-.4,0-.5,0-.9.4-.8.9,0,.4.4.7.8.7s.3,0,.4,0c0,1.1-.6,2-1.2,2.6-.7.6-1.3.9-1.3.9l.6.5h-.4c-.1.1-.2.2-.1.3,0,0,.1.2.2.2h9.9c0,0,.2,0,.2-.2,0-.1,0-.2-.1-.2h0,0Z"/>
      <g>
        <path d="M58.4-15.9l-.7-.2c-.1,0-.3-.1-.3-.2,0-.1-.1-.2-.1-.4v-7.7c-.4-.2-.9-.3-1.7-.1,0,0-.2,0-.3,0-.2,0-.6,0-.9,0-.3,0-.6,0-.8,0h-.4c-.1,0-.2,0-.3-.1,0,0,0,0,0,0,0,0,0,0,0-.1,0,0,0,0,0,0,0,0,0,0,0-.1l-.2-.7c0-.1-.1-.2-.2-.1,0,0-.2.1-.2.2v4.2c0,0,0,.2.2.2h.1s0,0,0,0h0s.1-.5.1-.5h0l.5.6s.3-.7.9-1.3h0c.3-.3.7-.7,1.2-.9v6.6c0,.1,0,.3-.1.4,0,.1-.2.2-.3.2l-.7.2c-.1,0-.2.1-.1.2,0,0,.1.2.2.2h4.2c0,0,.2,0,.2-.2,0-.1,0-.2-.1-.2h0s0,0,0,0Z"/>
        <path d="M58.4-26.6l-.7-.2c-.1,0-.3-.1-.3-.2,0-.1-.1-.2-.1-.4v-4.2c0-.1,0-.3.1-.4,0-.1.2-.2.3-.2l.7-.2c.1,0,.2-.1.1-.2,0,0-.1-.2-.2-.2h-9.9c0,0-.2,0-.2.2,0,0,0,.1,0,.1,0,0,0,0,0,0,0,0,0,0,0,0h.4c0,.1-.6.7-.6.7,0,0,.7.3,1.3.9h0c.6.6,1.2,1.5,1.2,2.6-.1,0-.2,0-.4,0-.4,0-.8.3-.8.7,0,.5.3.9.8.9s.3,0,.4,0h0c.1,0,.5-.2.7-.6h0c.2-.4.3-.9.2-1.8,0-.2,0-.7-.1-1.2,0-.3,0-.6,0-.8v-.4c0-.1,0-.3.1-.4,0,0,0-.1.2-.1,0,0,0,0,0,0,0,0,.2,0,.3,0h2.4c.2,0,.3,0,.4.2,0,0,0,0,0,0,0,0,.1.2.1.3v4.2c0,.1,0,.3-.1.4,0,0,0,0,0,0-.1.1-.3.2-.4.2h-2.5c-.2,0-.4,0-.6.1,0,0-.2,0-.2.2-.2.2-.5.3-.8.3s-.6-.1-.8-.3c0,0,0,0-.1-.1-.2-.1-.4-.2-.7-.2h-.5c0,0-.2,0-.2.2,0,.1,0,.2.1.2l.7.2c.1,0,.3.1.3.2,0,.1.1.2.1.4v7.6h0v1.3c0,.1,0,.3-.1.4s-.2.2-.3.2h0l-.7.2h0c0,0-.1.1-.1.2,0,0,0,.1.1.1h4.3c0,0,.2,0,.2-.2,0-.1,0-.2-.1-.2l-.7-.2c-.1,0-.3-.1-.3-.2,0,0,0-.2-.1-.2v-9c0-.1,0-.2.1-.3,0,0,0,0,0,0,0-.1.2-.2.4-.2h6.2c0,0,.2,0,.2-.2,0-.1,0-.2-.1-.2h0Z"/>
      </g>
      <path d="M36.9-15.8s0,0,0,0c0,0,0,0,0,0,0,0,0,0,0,0,0,0,0,0,0,0l.7-.2c.1,0,.3-.1.3-.2,0,0,0-.1.1-.2,0,0,0,0,0,0v-15.1s0,0,0,0h0c0,0,0-.1,0-.2,0-.1-.2-.2-.3-.2l-.7-.2s0,0,0,0c0,0,0,0,0,0,0,0,0,0,0,0h0s0-.2,0-.2c0,0,.1-.2.2-.2h10s0,0,0,0c0,0,0,0,0,0h0c0,.2,0,.2,0,.2h-.4c0,.1.6.7.6.7,0,0-.7.3-1.3.9h0c-.6.6-1.2,1.5-1.2,2.6h0s0,0,0,0c0,0,0,0,.1,0,0,0,.1,0,.2,0h.1s0,0,0,0h0s0,0,0,0c0,0,0,0,0,0,0,0,0,0,.1,0,0,0,0,0,0,0,0,0,0,0,0,0,0,0,0,0,0,0,0,0,0,0,0,0,0,0,0,0,0,0,0,0,0,0,0,.1h0c0,.6-.3,1-.8,1s-.3,0-.4,0h0c-.1,0-.5-.2-.7-.6h0c-.2-.4-.3-.9-.2-1.8,0-.2,0-.7.1-1.2,0-.3,0-.6,0-.8v-.5s0,0,0-.1c0,0,0,0,0,0h0s0,0,0,0c0,0,0,0,0,0,0,0,0,0,0,0,0,0,0,0-.1,0h0s0,0,0,0c0,0,0,0,0,0h-2.6c-.2,0-.3,0-.4.2,0,0,0,0,0,0,0,0-.1.2-.1.3v4.2c0,.1,0,.3.1.4,0,0,0,0,0,0,.1.1.3.2.4.2h2.5c.2,0,.4,0,.6.1,0,0,.2,0,.2.2.2.2.5.3.8.3s.6-.1.8-.3c0,0,0,0,.1-.1h0v4.9h0c0,0-.1,0-.1-.1-.2-.2-.5-.3-.8-.3s-.6.1-.8.3c0,0-.2.1-.2.2h0v-4c0-.1,0-.2-.1-.3,0,0,0,0,0,0,0-.1-.2-.2-.4-.2h-2.6c-.1,0-.2,0-.3.2,0,0,0,0,0,0,0,.1-.1,1.3-.1,1.5v7.8c0,.1,0,.2.1.3,0,0,0,0,0,0,.1.1.3.2.4.2h2.6s0,0,.1,0c0,0,.2-.1.2-.2,0,0,0,0,0,0h0s0,0,0,0c0,0,0,0,0-.1v-.5c0-.2,0-.5,0-.8,0-.5-.1-1-.1-1.2-.1-.9,0-1.4.2-1.8h0c.2-.4.6-.6.7-.6,0,0,0,0,0,0h0c.1,0,.2,0,.4,0,.5,0,.9.4.8.9,0,0,0,0,0,.1,0,0,0,0,0,0,0,0,0,0,0,0,0,0,0,0,0,0,0,0,0,0,0,0,0,0,0,0,0,0,0,0,0,0,0,0,0,0,0,0,0,0,0,0,0,0-.1,0,0,0,0,0,0,0,0,0,0,0,0,0,0,0,0,0,0,0h-.2c0,0-.1,0-.2,0,0,0,0,0-.1,0,0,0,0,0,0,0,0,1.1.6,2,1.2,2.6h0c.7.6,1.3,1,1.3,1l-.6.5h.4c0,.1,0,.1,0,.1,0,0,0,0,0,0h0c0,.2,0,.2,0,.2s0,0,0,0h-10c0,0-.2,0-.2-.2h0c0,0,0-.1,0-.1h0,0Z"/>
    </g>
  </g>
  <g id="Capa_3">
    <g>
      <path d="M48.6,8.6c-1.8-1.6-5.9-1.5-7.6.2h0c-2.5,2.5-1.9,8.2,2.2,9,5.5,1.2,9.6-5.6,5.4-9.2ZM48,14.4h0c-.2.2-.5.3-.7.1l-1.3-.9c-.2-.2-.5-.1-.7,0l-1.3,1.4c-.2.2-.6.2-.8,0,0,0,0,0,0,0-.2-.2-.1-.5,0-.7l.8-.9c.2-.3.2-.7-.1-.8l-.8-.5c-.3-.1-.3-.5-.2-.8h0c.2-.4.5-.4.8-.2l1.1.8c.2.2.5.2.7,0l1.3-1.3c.1-.1.2-.2.4-.2s.1,0,.2,0c.3.2.4.6.2.9l-.7.8c-.2.2-.2.6,0,.8l1,.8c.3.2.3.5.1.8Z"/>
      <path d="M35.6,16.8c-4.7,3.8-5.6-4.8-9.2-5.5-3.6-.8-4.4,4.8-8.3,4.4-3.9-.4-6-7-7.9-4.5-1.9,2.5-1.8,6.5-4.7,5.6-2.6-.8-3-9.5.1-10.2,3.2-.7,4.1-3.2,6.5-2.9,2.3.3,2.5,1.1,5.3,3.1,1.5,1,3.7-.3,5.4-1.7,2.3-1.9,5.7-1.9,7.8.2.7.6,7.8,9.2,4.9,11.6Z"/>
      <path d="M40.9,25.1c-.6,2.3-4.5,5.4-7.9,4.6-3.3-.8-10.3-9.5-7.1-11.8,2.3-1.6,3.8.5,4.7,2,1,1.5,1.2,2.8,2.6,2.8,1.4.1,3-4.9,5.9-4.7,1.8,0,2.4,4.7,1.8,7Z"/>
      <path d="M59,24.1c0-1.3,4.5-1.5,2.2-7.2-1.5-3.8-6.9-2.2-9.4,0-2.5,2.2-1.7,3.6-4.6,4-1.5.2-3.5.2-3.9,3.2-.3,2,2.4,4,5,3.3,2.6-.6,5.1,3.3,9.2,3.2,4-.1,6.2-1.1,6.3-3.4.1-2.4-4.7-1.7-4.7-3.1ZM58.1,18.7l-.8.6c-.2.2-1.5,1.2-1.7,1.4l-1.5,1.2c-.3.2-.6.1-.8-.2,0,0,0,0,0,0-.1-.2,0-.5.1-.7l.9-.8c.3-.2,1.4-1.1,1.7-1.3l1.5-1.1c.1,0,.2-.1.3-.1s.2,0,.3,0c.3.2.3.6,0,.9Z"/>
    </g>
  </g>
</svg>