<?xml version="1.0" encoding="UTF-8"?>
<svg id="Capa_1" xmlns="http://www.w3.org/2000/svg" version="1.1" viewBox="0 0 100 100">
  <!-- Generator: Adobe Illustrator 29.0.0, SVG Export Plug-In . SVG Version: 2.1.0 Build 186)  -->
  <defs>
    <style>
      .st0 {
        fill: #252525;
      }

      .st1 {
        fill: #fff;
      }

      .st2 {
        fill: none;
        stroke: #252525;
        stroke-linecap: round;
        stroke-linejoin: round;
        stroke-width: 2.8px;
      }

      .st3 {
        fill: #33c5ff;
      }

      .st4 {
        display: none;
      }

      .st5 {
        opacity: .5;
      }
    </style>
  </defs>
  <circle class="st1" cx="50" cy="50" r="41"/>
  <path class="st0" d="M50,88.3c-21.1,0-38.3-17.2-38.3-38.3S28.9,11.7,50,11.7s38.3,17.2,38.3,38.3-17.2,38.3-38.3,38.3ZM50,14.5c-19.6,0-35.5,15.9-35.5,35.5s15.9,35.5,35.5,35.5,35.5-15.9,35.5-35.5S69.6,14.5,50,14.5Z"/>
  <path class="st0" d="M30.3,33.2c-.5,0-1-.3-1.3-.8-.3-.7,0-1.6.7-1.9,2.6-1.3,5.8-1.6,9.9-1,.8.1,1.3.9,1.2,1.6,0,.8-.8,1.3-1.6,1.2-3.4-.5-6.2-.3-8.2.7-.2,0-.4,0-.6,0h-.1Z"/>
  <path class="st0" d="M69.7,33.2c-.2,0-.4,0-.6,0-2-1-4.8-1.2-8.2-.7-.8,0-1.5-.4-1.6-1.2s.4-1.5,1.2-1.6c4.1-.6,7.3-.3,9.9,1,.7.3,1,1.2.7,1.9-.2.5-.8.8-1.3.8h0Z"/>
  <g class="st4">
    <g class="st5">
      <circle class="st3" cx="37.7" cy="41.8" r="8.2"/>
      <g>
        <path class="st1" d="M44.6,37.4l-11.5,11.2c-1.2-.8-2.1-1.9-2.8-3.2l10.4-11.3c1.6.6,2.9,1.8,3.9,3.2h0Z"/>
        <path class="st1" d="M45.8,40.8l-9.3,9.2c-.6,0-1.2-.2-1.7-.4l10.5-10.6c.2.6.4,1.2.5,1.8Z"/>
      </g>
    </g>
    <g class="st5">
      <circle class="st3" cx="62.3" cy="41.8" r="8.2"/>
      <g>
        <path class="st1" d="M69.2,37.4l-11.5,11.2c-1.2-.8-2.1-1.9-2.8-3.2l10.4-11.3c1.6.6,2.9,1.8,3.9,3.2h0Z"/>
        <path class="st1" d="M70.5,40.8l-9.3,9.2c-.6,0-1.2-.2-1.7-.4l10.5-10.6c.2.6.4,1.2.5,1.8Z"/>
      </g>
    </g>
  </g>
  <path class="st0" d="M52,47.8c-1-1.3-2.9-1.3-3.9,0s-2.1,3.9-2.1,6.2.7,3.1,2.1,3.6,3,.4,4.3-.3,1.8-1.8,1.8-3.3c0-2.4-.7-4.4-2.1-6.2h0Z"/>
  <g>
    <line class="st2" x1="33.5" y1="37.6" x2="41.9" y2="46"/>
    <line class="st2" x1="33.5" y1="46" x2="41.9" y2="37.6"/>
  </g>
  <g>
    <line class="st2" x1="58.1" y1="37.6" x2="66.5" y2="46"/>
    <line class="st2" x1="58.1" y1="46" x2="66.5" y2="37.6"/>
  </g>
  <path class="st2" d="M36.3,70.2c4.2-4.2,23.3-4.2,27.5,0"/>
</svg>