<?xml version="1.0" encoding="UTF-8"?>
<svg xmlns="http://www.w3.org/2000/svg" version="1.1" viewBox="0 0 895.5 148">
  <!-- Generator: Adobe Illustrator 29.0.0, SVG Export Plug-In . SVG Version: 2.1.0 Build 186)  -->
  <defs>
    <style>
      .st0 {
        mix-blend-mode: lighten;
      }

      .st1 {
        isolation: isolate;
      }

      .st2 {
        fill: #dbdbdb;
      }

      .st3 {
        fill: #9f0;
      }
    </style>
  </defs>
  <g class="st1">
    <g id="Capa_1">
      <g id="Capa_11" data-name="Capa_1">
        <g id="Capa_11">
          <g>
            <g>
              <path class="st2" d="M865.2,137.8l-5.6-1.5c-2.1-.7-3.6-4.7-3.6-4.7l-25.6-62.1,22.3-54.6c.8-1.9,1.7-3,3.3-3.5.4-.1,5.5-1.4,5.5-1.4.8-.2,1.3-1,1.1-1.8-.2-.7-.8-1.2-1.5-1.2h-26.1c-.7,0-1.3.5-1.5,1.2-.2.8.3,1.6,1.1,1.8l5.6,1.5c1.1.3,2,.9,2.6,1.8.9,1.1,1.2,2.5.7,4l-17.3,42.3-17.5-42.3c-.6-1.5-.2-2.8.7-4,.6-.8,1.5-1.5,2.6-1.8l5.6-1.5c.8-.2,1.3-1,1.1-1.8-.2-.7-.8-1.2-1.5-1.2h-33.1c-.7,0-1.3.5-1.5,1.2-.2.8.3,1.6,1.1,1.8,0,0,5.1,1.3,5.5,1.4,1.6.5,2.5,1.7,3.3,3.5l26.1,63.3-21.8,53.4s-1.5,4-3.6,4.7l-5.6,1.5c-.8.2-1.3,1-1.1,1.8.2.7.8,1.2,1.5,1.2h25.9c.7,0,1.3-.5,1.5-1.2.2-.8-.3-1.6-1.1-1.8l-5.6-1.5c-1.1-.3-2-.9-2.6-1.8-.9-1.1-1.1-2.6-.7-4l17.3-42.3,17.4,42.3c.4,1.4.2,2.8-.7,4-.6.8-1.5,1.5-2.6,1.8l-5.6,1.5c-.8.2-1.3,1-1.1,1.8.2.7.8,1.2,1.5,1.2h33.1c.7,0,1.3-.5,1.5-1.2.2-.8-.3-1.6-1.1-1.8h0Z"/>
              <path class="st2" d="M462.4,137.9l-5.6-1.5c-1.1-.3-2-.9-2.6-1.8-.6-.8-1-1.9-1-3V16.1c0-1.1.4-2.1,1-3,.6-.8,1.5-1.5,2.6-1.8l5.6-1.5c.8-.2,1.3-1,1.1-1.8-.2-.7-.8-1.2-1.5-1.2h-77c-.7,0-1.3.5-1.5,1.2-.2.8.3,1.6,1.1,1.8l5.6,1.5c1.1.3,2,.9,2.6,1.8.6.8,1,1.9,1,3v115.5c0,1.1-.4,2.1-1,3-.6.8-1.5,1.5-2.6,1.8l-5.6,1.5c-.8.2-1.3,1-1.1,1.8.2.7.8,1.2,1.5,1.2h77c.7,0,1.3-.5,1.5-1.2.2-.8-.3-1.6-1.1-1.8ZM437.7,131.6c0,1.1-.4,2.1-1,3-.1.2-.3.3-.4.5-.9.9-2.1,1.3-3.3,1.3h-18.8c-1.2,0-2.5-.4-3.3-1.3-.2-.2-.3-.3-.4-.5-.6-.8-1-1.9-1-3V16.1c0-1.1.4-2.1,1-3,.1-.2.3-.3.4-.5.9-.9,2.1-1.3,3.3-1.3h18.8c1.2,0,2.5.4,3.3,1.3.2.2.3.3.4.5.6.8,1,1.9,1,3v115.5Z"/>
              <path class="st2" d="M772.7,137.9l-5.6-1.5c-1.1-.3-2-.9-2.6-1.8-.6-.8-1-1.9-1-3V16.1c0-1.1.4-2.1,1-3,.6-.8,1.5-1.5,2.6-1.8l5.6-1.5c.8-.2,1.3-1,1.1-1.8-.2-.7-.8-1.2-1.5-1.2h-31.6c-.7,0-1.3.5-1.5,1.2-.2.8.3,1.6,1.1,1.8l5.6,1.5c1.1.3,2,.9,2.6,1.8.6.8,1,1.9,1,3v115.5c0,1.1-.4,2.1-1,3-.6.8-1.5,1.5-2.6,1.8l-5.6,1.5c-.8.2-1.3,1-1.1,1.8.2.7.8,1.2,1.5,1.2h31.6c.7,0,1.3-.5,1.5-1.2.2-.8-.3-1.6-1.1-1.8Z"/>
              <path class="st2" d="M364.2,125.3c-4.9-4.6-9.7-11.4-9.7-20,.9.4,1.9.7,2.9.7,3.2,0,6-2.4,6.4-5.6.5-3.9-2.6-7.1-6.4-7.1s-2,.2-2.9.7h0s-3.5,1-5.8,5.1c-1.7,2.9-2.7,7.4-1.6,14.2.9,5.5,1.6,11.1,1.6,16.7v1.8c0,1-.4,2-1,2.7-.1.2-.3.3-.4.5-.9.9-2.1,1.3-3.3,1.3h-18.9c-1.2,0-2.5-.4-3.3-1.3-.1-.1-.3-.3-.4-.5-.6-.8-1-1.9-1-3V16.2c0-1.1.4-2.1,1-3,.1-.2.3-.3.4-.5.9-.9,2.1-1.3,3.3-1.3h18.9c1.2,0,2.5.4,3.3,1.3.1.1.3.3.4.5.6.8.9,1.7,1,2.7v2c0,5.6-.6,11.1-1.6,16.7-1.1,6.8,0,11.2,1.6,14.2,2.3,4.2,5.8,5.2,5.8,5.2h0c.9.4,1.9.6,2.9.6,3.8,0,6.8-3.3,6.4-7.1-.4-3.1-3.2-5.6-6.4-5.6s-2,.2-2.9.7c0-8.6,4.8-15.4,9.7-20,5.1-4.9,10.4-7.4,10.4-7.4l-4.5-4.2,3.4-.9c.8-.2,1.3-1,1.1-1.8-.2-.7-.8-1.2-1.5-1.2h-77c-.3,0-.5,0-.7.2h-.2c-.3.2-.5.5-.5.9-.1.5,0,1.1.4,1.4.2.2.4.3.7.4l5.6,1.5c.2,0,.4.1.6.2.6.2,1.1.6,1.5,1,.2.2.4.4.5.6.6.8,1,1.9,1,3v115.4c0,1.1-.4,2.1-1,3-.6.8-1.5,1.5-2.6,1.8l-5.6,1.5c-.8.2-1.3,1-1.1,1.8.2.7.8,1.2,1.5,1.2h77c.7,0,1.3-.5,1.5-1.2.2-.8-.3-1.6-1.1-1.8l-3.4-.9,4.6-4.3s-5.2-2.6-10.4-7.4l-.2-.2h0Z"/>
              <path class="st2" d="M38,22.5c4.9,4.6,9.7,11.4,9.7,20-.9-.4-1.9-.7-2.9-.7-3.2,0-6,2.4-6.4,5.6-.5,3.9,2.6,7.1,6.4,7.1s2-.2,2.9-.7h0s3.5-1,5.8-5.1c1.7-2.9,2.7-7.4,1.6-14.2-.9-5.5-1.6-11.1-1.6-16.7v-1.8c0-1,.4-2,1-2.7,0-.2.3-.3.4-.5.9-.9,2.1-1.3,3.3-1.3h18.9c1.2,0,2.5.4,3.3,1.3s.3.3.4.5c.6.8,1,1.9,1,3v115.4c0,1.1-.4,2.1-1,3,0,.2-.3.3-.4.5-.9.9-2.1,1.3-3.3,1.3h-18.9c-1.2,0-2.5-.4-3.3-1.3,0-.1-.3-.3-.4-.5-.6-.8-.9-1.7-1-2.7v-2c0-5.6.6-11.1,1.6-16.7,1.1-6.8,0-11.2-1.6-14.2-2.3-4.2-5.8-5.2-5.8-5.2h0c-.9-.4-1.9-.6-2.9-.6-3.8,0-6.8,3.3-6.4,7.1.4,3.1,3.2,5.6,6.4,5.6s2-.2,2.9-.7c0,8.6-4.8,15.4-9.7,20-5.1,4.9-10.4,7.4-10.4,7.4l4.5,4.2-3.4.9c-.8.2-1.3,1-1.1,1.8.2.7.8,1.2,1.5,1.2h77c.3,0,.5,0,.7-.2h.2c.3-.3.5-.6.5-1s0-1.1-.4-1.4c-.2-.2-.4-.3-.7-.4l-5.6-1.5c-.2,0-.4-.1-.6-.2-.6-.2-1.1-.6-1.5-1-.2-.2-.4-.4-.5-.6-.6-.8-1-1.9-1-3V16.1c0-1.1.4-2.1,1-3,.6-.8,1.5-1.5,2.6-1.8l5.6-1.5c.8-.2,1.3-1,1.1-1.8-.2-.7-.8-1.2-1.5-1.2H29.2c-.7,0-1.3.5-1.5,1.2-.2.8.3,1.6,1.1,1.8l3.4.9-4.6,4.3s5.2,2.6,10.4,7.4h0Z"/>
              <path class="st2" d="M720.1,125.3c-4.8-4.5-9.5-11.1-9.7-19.4.4,0,.7,0,1.1-.2.6.2,1.2.3,1.8.3,3.2,0,6-2.4,6.4-5.6.5-3.9-2.6-7.1-6.4-7.1s-1.2,0-1.8.3c-.4,0-.8.2-1.1.4h0s-3.5,1-5.8,5.1c-1.7,2.9-2.7,7.4-1.6,14.2.9,5.2,1.5,10.4,1.6,15.7v2.9c0,1-.4,2-1,2.7,0,.2-.3.3-.4.5-.9.9-2.1,1.3-3.3,1.3h-18.9c-1.2,0-2.5-.4-3.3-1.3,0-.1-.3-.3-.4-.5-.6-.8-1-1.7-1-2.7V57.9h3.3c1.1,0,2.1.4,3,1,.8.6,1.5,1.5,1.8,2.6l1.5,5.6c.2.8,1,1.3,1.8,1.1.7-.2,1.2-.8,1.2-1.5v-22.2c0-.7-.5-1.3-1.2-1.5-.8-.2-1.6.3-1.8,1.1l-1.5,5.6c-.3,1.1-.9,2-1.8,2.6-.8.6-1.9,1-3,1h-3.3V15.9c0-1,.4-1.9,1-2.7,0-.2.3-.3.4-.5.9-.9,2.1-1.3,3.3-1.3h18.9c1.2,0,2.5.4,3.3,1.3s.3.3.4.5c.6.8.9,1.7,1,2.7v2c0,5.6-.6,11.1-1.6,16.7-1.1,6.8,0,11.2,1.6,14.1,1.8,3.3,4.4,4.6,5.4,5,.3,0,.4.2.4.2h0c.9.4,1.9.6,2.9.6,3.8,0,6.8-3.3,6.4-7.1-.4-3.1-3.2-5.6-6.4-5.6s-2,.2-2.9.7c0-8.6,4.8-15.4,9.7-20,5.1-4.9,10.4-7.4,10.4-7.4l-4.5-4.2,3.4-.9c.8-.2,1.3-1,1.1-1.8-.2-.7-.8-1.2-1.5-1.2h-77.2c-.7,0-1.3.5-1.5,1.2-.2.8.3,1.6,1.1,1.8l5.6,1.5c1.1.3,2,.9,2.6,1.8.6.8,1,1.9,1,3v115.5c0,1.1-.4,2.1-1,3-.6.8-1.5,1.5-2.6,1.8l-5.6,1.5c-.8.2-1.3,1-1.1,1.8.2.7.8,1.2,1.5,1.2h77.2c.7,0,1.3-.5,1.5-1.2.2-.8-.3-1.6-1.1-1.8l-3.4-.9,4.6-4.3s-5.2-2.6-10.4-7.4v-.2h-.1Z"/>
              <path class="st2" d="M186.4,125.3c-4.8-4.5-9.5-11.1-9.7-19.4.4,0,.7,0,1.1-.2.6.2,1.2.3,1.8.3,3.2,0,6-2.4,6.4-5.6.5-3.9-2.6-7.1-6.4-7.1s-1.2,0-1.8.3c-.4,0-.8.2-1.1.4h0s-3.5,1-5.8,5.1c-1.7,2.9-2.7,7.4-1.6,14.2.9,5.2,1.5,10.4,1.6,15.7v2.9c0,1-.4,2-1,2.7-.1.2-.3.3-.4.5-.9.9-2.1,1.3-3.3,1.3h-18.9c-1.2,0-2.5-.4-3.3-1.3-.1-.1-.3-.3-.4-.5-.6-.8-1-1.7-1-2.7V57.9h3.3c1.1,0,2.1.4,3,1s1.5,1.5,1.8,2.6l1.5,5.6c.2.8,1,1.3,1.8,1.1.7-.2,1.2-.8,1.2-1.5v-22.2c0-.7-.5-1.3-1.2-1.5-.8-.2-1.6.3-1.8,1.1l-1.5,5.6c-.3,1.1-.9,2-1.8,2.6-.8.6-1.9,1-3,1h-3.3V15.9c0-1,.4-1.9,1-2.7.1-.2.3-.3.4-.5.9-.9,2.1-1.3,3.3-1.3h18.9c1.2,0,2.5.4,3.3,1.3s.3.3.4.5c.6.8.9,1.7,1,2.7v2c0,5.6-.6,11.1-1.6,16.7-1.1,6.8,0,11.2,1.6,14.1,1.8,3.3,4.4,4.6,5.4,5,.3,0,.4.2.4.2h0c.9.4,1.9.6,2.9.6,3.8,0,6.8-3.3,6.4-7.1-.4-3.1-3.2-5.6-6.4-5.6s-2,.2-2.9.7c0-8.6,4.8-15.4,9.7-20,5.1-4.9,10.4-7.4,10.4-7.4l-4.5-4.2,3.4-.9c.8-.2,1.3-1,1.1-1.8-.2-.7-.8-1.2-1.5-1.2h-77.2c-.7,0-1.3.5-1.5,1.2-.2.8.3,1.6,1.1,1.8l5.6,1.5c1.1.3,2,.9,2.6,1.8.6.8,1,1.9,1,3v115.5c0,1.1-.4,2.1-1,3-.6.8-1.5,1.5-2.6,1.8l-5.6,1.5c-.8.2-1.3,1-1.1,1.8.2.7.8,1.2,1.5,1.2h77.2c.7,0,1.3-.5,1.5-1.2.2-.8-.3-1.6-1.1-1.8l-3.4-.9,4.6-4.3s-5.2-2.6-10.4-7.4v-.2h0Z"/>
              <path class="st2" d="M284.6,137.8l-5.6-1.5c-1.1-.3-2-.9-2.6-1.8-.6-.8-1-1.9-1-3v-55.5h0v-13.5c0-1.1.2-2.1.9-3,.6-.8,1.5-1.5,2.6-1.8l5.6-1.5c.8-.2,1.3-1,1.1-1.8-.2-.7-.8-1.2-1.5-1.2h-3.6c-2.3,0-4.5.7-6.3,2.2-1.7,1.5-3.9,2.4-6.3,2.4s-4.6-.9-6.3-2.4c-1.7-1.5-4-2.2-6.3-2.2h-19.4c-1.2,0-2.5-.4-3.4-1.3-.1-.2-.3-.3-.4-.5-.6-.8-1-1.9-1-3V15.7c0-.9.4-1.8,1-2.5.1-.2.3-.3.4-.5.9-.9,2.1-1.3,3.3-1.3h19c1.2,0,2.5.4,3.3,1.3s.3.3.4.5c.6.8.9,1.7,1,2.7v2c0,1.3-.2,4.2-.5,7.3-.3,3.8-.8,7.8-1,9.3-1.1,6.8,0,11.2,1.6,14.1,1.8,3.3,4.4,4.6,5.4,5,.3,0,.4.2.4.2h0c.9.4,1.9.6,2.9.6,3.8,0,6.8-3.3,6.4-7.1-.4-3.1-3.2-5.6-6.4-5.6s-2,.2-2.9.7c0-8.6,4.8-15.4,9.7-20,5.1-4.9,10.4-7.4,10.4-7.4l-4.5-4.2,3.4-.9c.8-.2,1.3-1,1.1-1.8-.2-.7-.8-1.2-1.5-1.2h-77.2c-.7,0-1.3.5-1.5,1.2-.2.8.3,1.6,1.1,1.8l5.6,1.5c1.1.3,2,.9,2.6,1.8.6.8,1,1.9,1,3v32.5c0,1.1-.4,2.1-1,2.9-.6.8-1.5,1.5-2.6,1.8l-5.6,1.5c-.8.2-1.3,1-1.1,1.8.2.7.8,1.2,1.5,1.2h48.4c1.1,0,2.1.4,2.9,1.2.2.2.3.4.5.6.6.8,1.1,1.9,1.1,3v58.9h0v10.4c0,1-.6,1.9-1.2,2.7-.1.2-.3.3-.4.5-.9.9-2.1,1.3-3.3,1.3h-18.9c-1.2,0-2.5-.4-3.3-1.3s-.3-.3-.4-.5c-.6-.8-.9-1.7-1-2.7v-2c0-5.6.6-11.1,1.6-16.7,1.1-6.8,0-11.2-1.6-14.1-1.8-3.3-4.4-4.6-5.4-5-.3,0-.4-.2-.4-.2h0c-.9-.4-1.9-.6-2.9-.6-3.8,0-6.8,3.3-6.4,7.1.4,3.1,3.2,5.6,6.4,5.6s2-.2,2.9-.7c0,8.6-4.8,15.4-9.7,20-5.1,4.9-10.4,7.4-10.4,7.4l4.5,4.2-3.4.9c-.8.2-1.3,1-1.1,1.8.2.7.8,1.2,1.5,1.2h77.2c.7,0,1.3-.5,1.5-1.2.2-.8-.3-1.6-1.1-1.8h.2,0Z"/>
              <g>
                <path class="st2" d="M640.4,137.9l-5.6-1.5c-1.1-.3-2-.9-2.6-1.8-.6-.8-1-1.9-1-3v-60.1c-2.9-1.3-7.1-2-13-1-.5,0-1.4.2-2.4.3-1.9.2-4.4.5-6.9.7-2.3.2-4.6.4-6.1.5h-3.2c-1,0-1.9-.4-2.7-1-.2,0-.3-.3-.5-.4-.2-.2-.4-.5-.6-.8,0,0-.2-.3-.3-.5-.2-.3-.3-.6-.4-1l-1.5-5.6c-.2-.8-1-1.3-1.8-1.1-.7.2-1.2.8-1.2,1.5v33.1c0,.7.5,1.3,1.2,1.5h1.1c.3,0,.5-.4.6-.7v-.2l.9-3.4h0l4.2,4.5s2.6-5.2,7.4-10.4h0c2.6-2.7,5.8-5.4,9.6-7.2v51.2c0,1.1-.4,2.1-1,3-.6.8-1.5,1.5-2.6,1.8l-5.6,1.5c-.8.2-1.3,1-1.1,1.8.2.7.8,1.2,1.5,1.2h33.1c.7,0,1.3-.5,1.5-1.2.2-.8-.3-1.6-1.1-1.8v.2h0Z"/>
                <path class="st2" d="M640.4,54.9l-5.6-1.5c-1.1-.3-2-.9-2.6-1.8-.6-.8-1-1.8-1-2.9V16.2c0-1.1.4-2.1,1-3,.6-.8,1.5-1.5,2.6-1.8l5.6-1.5c.8-.2,1.3-1,1.1-1.8-.2-.7-.8-1.2-1.5-1.2h-77.2c-.7,0-1.3.5-1.5,1.2,0,.4,0,.8.2,1.1,0,.3.4.5.7.6,0,0,.2,0,.3.1l3.3.9-4.5,4.2s5.2,2.6,10.4,7.4h0c4.9,4.7,9.7,11.4,9.7,20-.9-.5-1.9-.7-2.9-.7-3.2,0-6,2.4-6.4,5.6-.5,3.9,2.6,7.1,6.4,7.1s2-.2,2.9-.7h.4c1-.4,3.6-1.7,5.4-5h0c1.6-2.9,2.7-7.4,1.5-14.1-.3-1.5-.7-5.5-1-9.3-.2-2.3-.4-4.6-.5-6.1v-2.9c0-1.1.4-2.1,1-3,.3-.4.7-.8,1.2-1.1,0-.1.3-.2.5-.3.7-.3,1.4-.4,2.1-.4h19c1.2,0,2.5.4,3.3,1.2,0,.1.3.3.4.5.6.7.9,1.6,1,2.5v32.9c0,1.1-.4,2.1-1,3,0,.2-.3.3-.4.5-.9.9-2.1,1.3-3.4,1.3h-19.4c-1.5,0-3.1.3-4.4,1-.7.3-1.3.7-1.9,1.2-1.7,1.5-3.9,2.4-6.2,2.4s-4.6-.9-6.3-2.4c-.3-.3-.7-.6-1.1-.8-1.5-.9-3.3-1.4-5.1-1.4h-3.6c-.7,0-1.3.5-1.5,1.2-.2.8.3,1.6,1.1,1.8l5.6,1.5c1.1.3,2,.9,2.6,1.8.6.8.9,1.9.9,3v58.9h0v10.1c0,1.1-.4,2.1-1,3s-1.5,1.5-2.6,1.8h0l-5.6,1.5h-.2c-.7.3-1,1-.8,1.7,0,.5.5.9,1,1.1h33.7c.7,0,1.3-.5,1.5-1.2.2-.8-.3-1.6-1.1-1.8l-5.6-1.5c-1.1-.3-2-.9-2.6-1.8-.4-.5-.7-1.2-.9-1.9V62.1c0-.9.6-1.8,1.1-2.5,0-.2.3-.4.5-.6.7-.8,1.8-1.2,2.9-1.2h48.3c.7,0,1.3-.5,1.5-1.2.2-.8-.3-1.6-1.1-1.8h-.2Z"/>
              </g>
              <path class="st2" d="M472.5,138.7s0-.1.1-.2c0,0,0-.1.2-.2,0,0,.2-.2.3-.2,0,0,.2,0,.3-.1l5.6-1.5c1.1-.3,2-.9,2.6-1.8.3-.4.6-.9.8-1.5,0-.2.1-.4.1-.5V15.2c0-.2,0-.4-.1-.5v-.3c-.1-.4-.4-.8-.7-1.2-.6-.8-1.5-1.5-2.6-1.8l-5.6-1.5c-.1,0-.2,0-.3-.1-.1,0-.2-.1-.3-.2,0,0-.1-.1-.2-.2v-.2c-.1,0-.1-1-.1-1,.2-.7.8-1.2,1.5-1.2h77.7c.2,0,.5.2.6.4.2.2.3.4.4.7v1.1c0,.3-.4.6-.7.7h-.2l-3.3.9,4.5,4.2s-5.2,2.6-10.4,7.4h0c-4.9,4.7-9.7,11.4-9.7,20h0c.2,0,.4-.2.6-.3.2,0,.5-.2.8-.2.5,0,1-.2,1.5-.2h1.1c.2,0,.5,0,.7.2h.4s.2,0,.4.2c.2,0,.4.2.6.3.3.2.6.4.9.6,0,0,.2.2.3.3.2.2.3.3.5.5,0,0,.2.2.3.3,0,.2.3.4.4.6,0,0,0,.3.2.4.2.3.3.7.4,1.1v.9c.5,3.9-2.6,7.1-6.4,7.1s-2-.2-2.9-.7h-.4c-1-.4-3.6-1.7-5.4-5h0c-1.6-2.9-2.7-7.4-1.5-14.1.3-1.5.7-5.5,1-9.3.2-2.3.4-4.6.5-6.1v-4.1c0-.3-.2-.7-.3-1,0-.1,0-.3-.2-.4h0c0-.1,0-.2-.2-.4,0-.2-.2-.3-.4-.4,0-.1-.3-.3-.4-.4-.3-.2-.6-.4-1-.6h0s-.2,0-.4-.1c-.2,0-.4-.1-.6-.1h-19.9c-1.2,0-2.5.4-3.3,1.2-.1.1-.3.3-.4.5-.6.7-.9,1.6-1,2.5v32.9c0,1.1.4,2.1,1,3,.1.2.3.3.4.5.9.9,2.1,1.3,3.4,1.3h19.4c1.5,0,3.1.3,4.4,1,.7.3,1.3.7,1.9,1.2,1.7,1.5,3.9,2.4,6.2,2.4s4.6-.9,6.3-2.4c.3-.3.7-.6,1.1-.8h0v38.4h0c-.4-.2-.8-.5-1.1-.8-1.7-1.5-3.9-2.4-6.3-2.4s-4.6.9-6.2,2.4c-.6.5-1.2.9-1.9,1.2h0v-31.4c0-.9-.6-1.8-1.1-2.5,0-.2-.3-.4-.5-.6-.7-.8-1.8-1.2-2.9-1.2h-20.1c-.9,0-1.8.5-2.4,1.2-.1.2-.3.3-.4.5-.6.8-1,10.3-1,11.4v61.1c0,.9.4,1.8,1,2.5.1.2.3.3.4.5.9.9,2.1,1.3,3.3,1.3h19.9c.3,0,.7-.1,1-.3.7-.3,1.3-.8,1.8-1.5,0-.1.2-.2.2-.3h0c0-.1,0-.3.2-.4.2-.3.3-.7.3-1v-4.1c0-1.5-.3-3.8-.5-6.1-.3-3.8-.8-7.8-1-9.3-1.1-6.7,0-11.1,1.5-14.1h0c1.8-3.3,4.4-4.6,5.4-5,.3,0,.4-.2.4-.2h0c.9-.4,1.9-.6,2.9-.6,3.8,0,6.8,3.3,6.4,7.1,0,.3,0,.6-.2.9,0,.2,0,.3-.2.5,0,.2,0,.4-.2.6,0,0,0,.3-.2.4,0,.2-.2.4-.4.6,0,0-.2.2-.3.3,0,.2-.3.3-.5.5,0,0-.2.2-.3.3-.3.2-.6.5-.9.6-.2,0-.4.2-.6.3,0,0-.2,0-.4.2-.2,0-.5,0-.7.2h-1.5c-.4,0-1,0-1.5-.2-.3,0-.5,0-.8-.2-.2,0-.4-.2-.6-.3,0,8.6,4.8,15.4,9.7,20h0c5.1,4.9,10.4,7.5,10.4,7.5l-4.5,4.2,3.3.9h.2c.3.1.6.4.7.7v1.1c0,.3-.2.5-.4.7s-.4.3-.6.4h-77.7c-.7,0-1.3-.5-1.5-1.2v-.6c0-.1,0-.3.1-.4h-.2,0Z"/>
            </g>
            <g class="st0">
              <path class="st3" d="M615.8,37.9c23.6-4,33,26.3,16,38.9-.8.6-1.5,1.4-2.2,2.4-4.2,8.4,17.4,2.8,18.9,12.2,2.8,17.1-22.1,19.4-34.2,17.7s-16.4-9-25.3-13.2c-4.3-2-5.7-1.9-8.1-1.2-14,4.2-32.4-12.3-20-25.1,7-6.7,15.5,0,23.7-9.2,7-11.7,18.2-20.4,31-22.6h.2,0Z"/>
              <path class="st3" d="M478.9,53.7c16.1-3.5,21.4,24.2,29.7,23.9,7.1-.3,16.9-22.2,24.1-21.8,10.6.5,10.7,23.1,9.9,30.5-.8,8.2-11,14.2-18.5,19.1s-18.2,4.7-25.5-1.1c-18.1-14.2-36.4-45.5-19.5-50.4h-.1v-.2h-.1Z"/>
              <path class="st3" d="M417.5,67.6c7.6-7.6,25.8-8.2,34.1-.9,19,16.5.7,46.7-24.2,41.5-18.6-3.9-21.3-29.2-9.9-40.5h0Z"/>
              <path class="st3" d="M347.8,37.9c20.3-3.2,24.3,16.2,32.7,29.8,5.7,9.1,19.1,19.8,15,32-1.9,5.4-7.2,9.1-12.8,9.1s-7-.8-10.3-3.8c-4.9-4.4-11.5-14-16.5-21.6-3.7-5.8-11.6-6.7-16.5-2-5.1,4.9-10.7,10.4-12.4,12.1-5.4,5.8-14,7-20.6,2.8-1.4-.9-3.8-2.5-6.2-4.3-4.6-3.3-8.8-7.1-13-11-6-5.5-11.7-5.3-13.2,3.1,0,0-1.8,8.4-3.5,12.3-.4.8-.7,1.5-.8,1.9-4.4,9.3-16.7,7.3-20.4-2.3-2.5-6.5-3.3-16.1-2.3-24.2.9-7,5.5-13.1,12-15.3,4.4-1.5,8.8-4.6,12.7-7.9,7.4-6.3,18.1-6,25,.9,7.3,7.4,16.9,13.5,24.8,6.7,8.8-7.5,13.2-16,26.3-18.1h-.1v-.2s.1,0,.1,0Z"/>
            </g>
          </g>
        </g>
      </g>
    </g>
  </g>
</svg>