<?xml version="1.0" encoding="UTF-8"?>
<svg id="Layer_1" xmlns="http://www.w3.org/2000/svg" version="1.1" viewBox="0 0 6212.5 1223.6">
  <!-- Generator: Adobe Illustrator 29.0.0, SVG Export Plug-In . SVG Version: 2.1.0 Build 186)  -->
  <defs>
    <style>
      .st0 {
        fill: none;
        stroke: #000;
        stroke-width: 3px;
      }

      .st1 {
        font-family: Poppins-SemiBold, Poppins;
        font-size: 1069.9px;
        font-weight: 600;
      }
    </style>
  </defs>
  <g>
    <path d="M6053.5,1014.8l-234.9-234.9c26.6-32.4,47.8-69.8,63.3-110.4.4-.8.8-1.6.8-1.9,1.9-5.8,3.9-11.6,5.8-17.4,11.2-36.3,17.4-75,17.4-114.7s-4.3-65.3-11.6-95.8c-.2-.2-.4-.5-.4-.8-5-18.1-10.9-36-17.8-52.9-2.7-6.2-5.4-12-8.1-17.8-5.4-11.6-11.6-22.4-18.2-32.8-9.6-15.8-20.5-31.3-32-45.6-27.4-33.3-60.7-61.8-97.8-84.3-10.4-6.6-21.6-12.8-32.8-18.2-11.2-5.4-22.8-10.1-34.4-14.3-7.4-2.7-14.7-5-22.1-7.4-9.6-3.1-19.3-5.4-29.4-7.7-26.3-5.4-53.3-8.5-81.6-8.5s-52.5,2.7-77.6,7.7c-12.3,2.7-24.8,5.8-36.7,9.6h-.4c-37.9,11.6-73.1,29-104.8,51.4-37.9,26.7-71.1,59.9-97.8,97.8-22.4,31.7-39.8,66.9-51.4,104.8v.4c-3.9,12-6.9,24.3-9.6,36.7-5,25.1-7.7,51-7.7,77.6s3.1,55.2,8.5,81.6c2.4,10.1,4.6,19.7,7.7,29.4,2.3,7.4,4.6,14.7,7.4,22.1,4.3,11.6,8.9,23.2,14.3,34.4,5.4,11.2,11.6,22.4,18.2,32.8,22.4,37.1,51,70.4,84.3,97.8,14.3,11.6,29.8,22.4,45.6,32,10.4,6.6,21.3,12.8,32.8,18.2,5.8,2.7,11.6,5.4,17.8,8.1,17,6.9,34.7,12.8,52.9,17.8.2,0,.5.1.8.4,30.5,7.4,62.6,11.6,95.8,11.6,86.6,0,166.5-28.6,231.1-76.5.8-.4,12.9-10.2,13.4-10.7l234.9,234.9c15.1,15.1,39.4,15.1,54.4,0,15.1-15.1,15.1-39.4,0-54.4l-.3.2ZM5210.9,535.9c0-170,139.2-309.1,309.1-309.1s309.1,139.2,309.1,309.1-139.2,309.1-309.1,309.1-309.1-139.2-309.1-309.1Z"/>
    <g>
      <circle class="st0" cx="5520.1" cy="535.9" r="309.1"/>
      <g>
        <circle cx="5417.1" cy="467.2" r="27.5"/>
        <circle cx="5623.2" cy="467.2" r="27.5"/>
        <g>
          <path d="M5417.1,550.1c-45.7,0-82.9-37.2-82.9-82.9s37.2-82.9,82.9-82.9,82.9,37.2,82.9,82.9-37.2,82.9-82.9,82.9ZM5417.1,412.7c-30.1,0-54.5,24.5-54.5,54.5s24.5,54.5,54.5,54.5,54.5-24.5,54.5-54.5-24.5-54.5-54.5-54.5Z"/>
          <path d="M5623.2,550.1c-45.7,0-82.9-37.2-82.9-82.9s37.2-82.9,82.9-82.9,82.9,37.2,82.9,82.9-37.2,82.9-82.9,82.9ZM5623.2,412.7c-30.1,0-54.5,24.5-54.5,54.5s24.5,54.5,54.5,54.5,54.5-24.5,54.5-54.5-24.5-54.5-54.5-54.5Z"/>
          <path d="M5554.5,481.4h-68.7c-7.8,0-14.2-6.3-14.2-14.2s6.3-14.2,14.2-14.2h68.7c7.8,0,14.2,6.3,14.2,14.2s-6.3,14.2-14.2,14.2Z"/>
          <path d="M5348.4,481.4c-1.8,0-3.5-.3-5.3-1-23.5-9.4-47.3-21.3-70.7-35.4-6.7-4-8.9-12.7-4.9-19.4,4-6.7,12.7-8.9,19.4-4.9,22.1,13.3,44.6,24.5,66.7,33.3,7.3,2.9,10.8,11.2,7.9,18.4-2.2,5.5-7.5,8.9-13.2,8.9Z"/>
          <path d="M5691.9,481.4c-5.6,0-10.9-3.4-13.2-8.9-2.9-7.3.6-15.5,7.9-18.4,22.1-8.8,44.5-20.1,66.7-33.3,6.7-4,15.4-1.9,19.4,4.9,4,6.7,1.9,15.4-4.9,19.4-23.4,14.1-47.2,26-70.7,35.4-1.7.7-3.5,1-5.3,1Z"/>
          <path d="M5520.1,639.4c-.9,0-1.9,0-2.8-.3-39.8-8-45.7-33.6-45.7-48.2,0-31.9,13.3-58.7,39.7-79.8,5.2-4.1,12.5-4.1,17.7,0,26.3,21.1,39.7,47.9,39.7,79.8s-5.9,40.3-45.7,48.2c-.9.2-1.8.3-2.8.3ZM5520.1,541.3c-13.6,14-20.2,30.3-20.2,49.6s0,15,20.2,19.8c20.2-4.9,20.2-14.9,20.2-19.8,0-19.3-6.6-35.7-20.2-49.6Z"/>
          <path d="M5506.4,639.4c-.8,0-1.6,0-2.3-.2-27.3-4.5-50.5-9.2-69-13.8-32.9-4-59.6,0-79.4,11.9-6.7,4-15.4,1.9-19.4-4.9-4-6.7-1.9-15.4,4.9-19.4,25.6-15.3,58.7-20.6,98.4-15.6h.8c0,.1.8.3.8.3,17.9,4.5,40.6,9,67.6,13.5,7.7,1.3,12.9,8.6,11.7,16.3-1.2,6.9-7.2,11.8-14,11.8Z"/>
          <path d="M5533.9,639.4c-6.8,0-12.8-4.9-14-11.8-1.3-7.7,3.9-15,11.7-16.3,27-4.5,49.7-9,67.6-13.5l.8-.2h.8c39.7-5.1,72.8.2,98.4,15.5,6.7,4,8.9,12.7,4.9,19.4-4,6.7-12.7,8.9-19.4,4.9-19.8-11.9-46.6-15.9-79.4-11.9-18.5,4.6-41.7,9.2-69,13.8-.8.1-1.6.2-2.3.2Z"/>
          <path d="M5355.3,618.8c-5.2,0-10.2-2.9-12.7-7.8-3.5-7-.7-15.5,6.3-19,21.2-10.6,48.6-13.3,83.9-8.2,7.7,1.1,13.1,8.3,12,16s-8.3,13.1-16,12c-29-4.1-51.6-2.3-67.2,5.5-2,1-4.2,1.5-6.3,1.5Z"/>
          <path d="M5685,618.8c-2.1,0-4.3-.5-6.3-1.5-15.6-7.8-38.2-9.7-67.2-5.5-7.8,1.1-14.9-4.3-16-12-1.1-7.7,4.3-14.9,12-16,35.3-5,62.8-2.4,83.9,8.2,7,3.5,9.8,12,6.3,19-2.5,5-7.5,7.8-12.7,7.8Z"/>
          <path d="M5520.1,745.8c-36.4,0-72.9-8.4-109-25.3-7.1-3.3-10.2-11.7-6.9-18.8,3.3-7.1,11.7-10.2,18.8-6.9,65.3,30.5,128.8,30.5,194.1,0,7.1-3.3,15.5-.2,18.8,6.9s.2,15.5-6.9,18.8c-36.2,16.9-72.6,25.3-109,25.3Z"/>
        </g>
      </g>
    </g>
  </g>
  <text class="st1" transform="translate(147.4 898.2)"><tspan x="0" y="0">impostor</tspan></text>
</svg>